<?xml version="1.0" standalone="no"?>
<!DOCTYPE svg PUBLIC "-//W3C//DTD SVG 20010904//EN"
 "http://www.w3.org/TR/2001/REC-SVG-20010904/DTD/svg10.dtd">
<svg version="1.0" xmlns="http://www.w3.org/2000/svg"
 width="144.000000pt" height="144.000000pt" viewBox="0 0 144.000000 144.000000"
 preserveAspectRatio="xMidYMid meet">
<metadata>
Created by potrace 1.14, written by Peter Selinger 2001-2017
</metadata>
<g transform="translate(0.000000,144.000000) scale(0.100000,-0.100000)"
fill="#000000" stroke="none">
<path d="M0 720 l0 -720 720 0 720 0 0 720 0 720 -720 0 -720 0 0 -720z m1400
-5 l0 -675 -675 0 -675 0 0 675 0 675 675 0 675 0 0 -675z"/>
<path d="M82 718 l3 -643 640 0 640 0 3 643 2 642 -645 0 -645 0 2 -642z m842
329 c191 -112 186 -103 186 -325 0 -239 12 -221 -231 -361 -152 -88 -152 -88
-366 36 -122 70 -159 105 -169 157 -3 19 -4 103 -2 187 3 123 7 161 21 186 13
24 54 54 160 116 78 47 149 87 157 90 43 18 106 -5 244 -86z"/>
<path d="M556 788 c-31 -34 -56 -66 -56 -72 0 -13 121 -136 133 -136 21 0 1
41 -43 85 l-50 51 50 56 c27 31 50 61 50 67 0 26 -32 7 -84 -51z"/>
<path d="M736 833 c-34 -120 -57 -236 -47 -246 6 -6 13 -8 17 -5 7 8 63 227
64 251 0 9 -6 17 -14 17 -8 0 -17 -8 -20 -17z"/>
<path d="M810 838 c0 -6 23 -35 51 -65 l50 -53 -52 -60 c-38 -44 -49 -64 -42
-71 8 -8 28 6 72 52 33 35 60 71 61 79 0 8 -26 40 -57 72 -55 56 -83 71 -83
46z"/>
</g>
</svg>
